<?xml version="1.0"?>
<svg width="179" height="41" xmlns="http://www.w3.org/2000/svg" xmlns:svg="http://www.w3.org/2000/svg">
 <defs>
  <clipPath id="a">
   <path fill="#fff" d="m0,0l40,0l0,41l-40,0l0,-41z" id="svg_1"/>
  </clipPath>
 </defs>
 <g class="layer">
  <title>Layer 1</title>
  <g clip-path="url(#a)" id="svg_2">
   <path fill="#C7231A" fill-rule="evenodd" d="m13.71,0.52c-2.25,0 -4.42,0.89 -6.01,2.49l-7.7,7.7l0,3.52c0,2.49 1.07,4.73 2.77,6.29a8.48,8.48 0 0 0 -2.77,6.28l0,3.53l7.7,7.69a8.51,8.51 0 0 0 12.3,-0.28a8.51,8.51 0 0 0 12.3,0.28l7.7,-7.69l0,-3.53c0,-2.49 -1.07,-4.73 -2.77,-6.28a8.48,8.48 0 0 0 2.77,-6.29l0,-3.52l-7.7,-7.7a8.51,8.51 0 0 0 -12.3,0.28a8.48,8.48 0 0 0 -6.29,-2.77zm12.05,20a8.53,8.53 0 0 1 -0.28,-0.27l-5.48,-5.48l-5.48,5.48a8.53,8.53 0 0 1 -0.28,0.27c0.1,0.08 0.19,0.17 0.28,0.27l5.48,5.47l5.48,-5.47c0.09,-0.1 0.18,-0.19 0.28,-0.27zm-3.54,9.81l0,1.68a4.06,4.06 0 0 0 6.94,2.87l6.4,-6.39l0,-1.69a4.06,4.06 0 0 0 -6.94,-2.87l-6.4,6.4zm-4.44,0l-6.4,-6.4a4.06,4.06 0 0 0 -6.94,2.87l0,1.69l6.4,6.39a4.06,4.06 0 0 0 6.94,-2.87l0,-1.68zm0,-21.31l0,1.69l-6.4,6.39a4.06,4.06 0 0 1 -6.94,-2.87l0,-1.68l6.4,-6.4a4.06,4.06 0 0 1 6.94,2.87zm10.84,8.08l-6.4,-6.39l0,-1.69a4.06,4.06 0 0 1 6.94,-2.87l6.4,6.4l0,1.68a4.06,4.06 0 0 1 -6.94,2.87z" clip-rule="evenodd" id="svg_3"/>
  </g>
  <path fill="#ffffff" d="m54.32,29l0,-16.8l11.48,0l0,3.1l-7.93,0l0,3.6l6.72,0l0,2.86l-6.72,0l0,4.11l8.03,0l0,3.13l-11.58,0zm12.82,0.02l4.36,-6.03l-4.14,-6.11l4.43,0l2.15,3.68l2.09,-3.68l4.32,0l-4.02,6.04l4.33,6.08l-4.49,0l-2.35,-3.7l-2.39,3.66l-4.29,0.06zm20.29,0.34c-1.3,0 -2.32,-0.36 -3.07,-1.09c-0.75,-0.74 -1.12,-1.85 -1.12,-3.33l0,-11.55l3.51,0l0,3.49l3.01,0l0,2.81l-3.01,0l0,4.62c0,0.71 0.14,1.21 0.44,1.5c0.3,0.29 0.69,0.43 1.19,0.43c0.25,0 0.5,-0.03 0.74,-0.08c0.25,-0.07 0.48,-0.16 0.69,-0.27l0.49,2.76c-0.36,0.2 -0.79,0.37 -1.3,0.51a5.92,5.92 0 0 1 -1.57,0.2zm-6.65,-9.67l0,-2.81l2.81,0l0,2.81l-2.81,0zm17.13,9.67c-1.32,0 -2.48,-0.27 -3.48,-0.8a5.85,5.85 0 0 1 -2.34,-2.25c-0.56,-0.96 -0.84,-2.08 -0.84,-3.37c0,-0.94 0.16,-1.8 0.48,-2.58a6.05,6.05 0 0 1 1.36,-2.03a6.2,6.2 0 0 1 2.08,-1.33c0.8,-0.32 1.68,-0.48 2.63,-0.48c1.05,0 1.98,0.18 2.78,0.55a5.43,5.43 0 0 1 2.03,1.55c0.54,0.66 0.91,1.43 1.12,2.32c0.21,0.88 0.23,1.85 0.06,2.89l-9.29,0c0,0.56 0.14,1.05 0.43,1.46c0.3,0.42 0.71,0.75 1.24,0.99c0.53,0.23 1.16,0.34 1.87,0.34c0.7,0 1.38,-0.09 2.02,-0.28a6.43,6.43 0 0 0 1.81,-0.88l1.16,2.4c-0.38,0.3 -0.86,0.56 -1.44,0.79c-0.57,0.23 -1.19,0.4 -1.83,0.52a9.42,9.42 0 0 1 -1.85,0.19zm-3.21,-7.94l5.73,0c-0.03,-0.72 -0.28,-1.28 -0.76,-1.7c-0.47,-0.41 -1.12,-0.62 -1.95,-0.62c-0.84,0 -1.53,0.21 -2.08,0.62c-0.54,0.42 -0.86,0.98 -0.94,1.7zm11.13,7.58l0,-12.12l3.5,0l0,1.37c0.47,-0.61 1.02,-1.05 1.65,-1.32a5.07,5.07 0 0 1 2,-0.41c1.13,0 2.06,0.22 2.79,0.67c0.73,0.44 1.28,1.01 1.63,1.72c0.36,0.7 0.54,1.44 0.54,2.22l0,7.87l-3.51,0l0,-6.78c0,-0.77 -0.21,-1.38 -0.64,-1.84c-0.43,-0.45 -1.04,-0.68 -1.85,-0.68c-0.51,0 -0.97,0.12 -1.36,0.35c-0.39,0.22 -0.7,0.54 -0.92,0.95c-0.22,0.4 -0.33,0.88 -0.33,1.41l0,6.59l-3.5,0zm19.29,0.35c-1.08,0 -2.08,-0.14 -2.99,-0.42c-0.91,-0.29 -1.69,-0.68 -2.34,-1.18l1.14,-2.45a8.33,8.33 0 0 0 2.05,1.02c0.74,0.24 1.45,0.36 2.13,0.36c0.67,0 1.19,-0.1 1.55,-0.3c0.36,-0.2 0.55,-0.5 0.55,-0.88c0,-0.35 -0.17,-0.6 -0.49,-0.76c-0.32,-0.17 -0.95,-0.35 -1.88,-0.54c-1.6,-0.29 -2.76,-0.74 -3.5,-1.36c-0.74,-0.62 -1.1,-1.48 -1.1,-2.56c0,-0.77 0.21,-1.45 0.63,-2.03c0.43,-0.59 1.03,-1.04 1.78,-1.36c0.75,-0.33 1.61,-0.49 2.59,-0.49c0.96,0 1.86,0.13 2.71,0.4c0.86,0.25 1.59,0.61 2.2,1.08l-1.11,2.46a5.34,5.34 0 0 0 -1.1,-0.68a6.35,6.35 0 0 0 -1.3,-0.44a5.43,5.43 0 0 0 -1.32,-0.17c-0.58,0 -1.05,0.1 -1.41,0.3c-0.36,0.19 -0.54,0.47 -0.54,0.82c0,0.35 0.16,0.61 0.49,0.78c0.33,0.17 0.94,0.35 1.84,0.55c1.67,0.35 2.86,0.82 3.56,1.4c0.71,0.58 1.07,1.39 1.07,2.44c0,0.81 -0.22,1.51 -0.66,2.11c-0.43,0.6 -1.04,1.07 -1.83,1.41c-0.77,0.32 -1.68,0.49 -2.72,0.49zm7.41,-0.35l0,-12.12l3.51,0l0,12.12l-3.51,0zm1.76,-14.04a2.26,2.26 0 0 1 -1.52,-0.54c-0.42,-0.37 -0.63,-0.86 -0.63,-1.46c0,-0.62 0.21,-1.11 0.63,-1.47a2.23,2.23 0 0 1 1.52,-0.55a2.23,2.23 0 0 1 1.51,0.55c0.42,0.36 0.63,0.85 0.63,1.47c0,0.6 -0.21,1.09 -0.63,1.46a2.26,2.26 0 0 1 -1.51,0.54zm10.36,14.4c-1.31,0 -2.46,-0.29 -3.47,-0.88a6.5,6.5 0 0 1 -2.38,-2.32a6.28,6.28 0 0 1 -0.85,-3.22c0,-0.86 0.17,-1.67 0.49,-2.44a6.3,6.3 0 0 1 1.4,-2.05c0.6,-0.6 1.3,-1.07 2.12,-1.41c0.82,-0.35 1.71,-0.52 2.69,-0.52c1.3,0 2.45,0.29 3.45,0.88a6.38,6.38 0 0 1 2.37,2.34c0.57,0.96 0.86,2.03 0.86,3.2c0,0.85 -0.16,1.66 -0.49,2.44a6.44,6.44 0 0 1 -1.39,2.06a6.55,6.55 0 0 1 -2.11,1.4c-0.82,0.35 -1.72,0.52 -2.69,0.52zm0,-3.04c0.61,0 1.17,-0.13 1.65,-0.4c0.49,-0.28 0.88,-0.68 1.16,-1.18c0.28,-0.51 0.42,-1.11 0.42,-1.8c0,-0.7 -0.14,-1.3 -0.42,-1.8a2.85,2.85 0 0 0 -1.14,-1.16c-0.49,-0.28 -1.05,-0.42 -1.67,-0.42c-0.63,0 -1.19,0.14 -1.68,0.42c-0.49,0.27 -0.88,0.66 -1.15,1.16c-0.28,0.5 -0.41,1.1 -0.41,1.8s0.14,1.3 0.42,1.8c0.28,0.5 0.66,0.9 1.15,1.18c0.49,0.27 1.04,0.4 1.67,0.4zm8.59,2.68l0,-12.12l3.5,0l0,1.37c0.46,-0.61 1.01,-1.05 1.64,-1.32a5.07,5.07 0 0 1 2.01,-0.41c1.12,0 2.05,0.22 2.78,0.67c0.74,0.44 1.28,1.01 1.63,1.72c0.36,0.7 0.54,1.44 0.54,2.22l0,7.87l-3.5,0l0,-6.78c0,-0.77 -0.22,-1.38 -0.65,-1.84c-0.42,-0.45 -1.04,-0.68 -1.85,-0.68c-0.51,0 -0.96,0.12 -1.35,0.35c-0.4,0.22 -0.7,0.54 -0.93,0.95c-0.21,0.4 -0.32,0.88 -0.32,1.41l0,6.59l-3.51,0l0.01,0zm19.29,0.35c-1.08,0 -2.08,-0.14 -2.99,-0.42c-0.91,-0.29 -1.69,-0.68 -2.34,-1.18l1.14,-2.45a8.33,8.33 0 0 0 2.05,1.02c0.74,0.24 1.44,0.36 2.12,0.36c0.68,0 1.19,-0.1 1.55,-0.3c0.37,-0.2 0.55,-0.5 0.55,-0.88c0,-0.35 -0.16,-0.6 -0.49,-0.76c-0.32,-0.17 -0.94,-0.35 -1.87,-0.54c-1.6,-0.29 -2.77,-0.74 -3.5,-1.36c-0.74,-0.62 -1.11,-1.48 -1.11,-2.56c0,-0.77 0.21,-1.45 0.64,-2.03c0.43,-0.59 1.02,-1.04 1.77,-1.36c0.76,-0.33 1.62,-0.49 2.6,-0.49c0.96,0 1.86,0.13 2.71,0.4c0.85,0.25 1.59,0.61 2.19,1.08l-1.1,2.46a5.34,5.34 0 0 0 -1.1,-0.68a6.35,6.35 0 0 0 -1.3,-0.44a5.43,5.43 0 0 0 -1.32,-0.17c-0.58,0 -1.06,0.1 -1.42,0.3c-0.36,0.19 -0.54,0.47 -0.54,0.82c0,0.35 0.17,0.61 0.5,0.78c0.32,0.17 0.94,0.35 1.83,0.55c1.67,0.35 2.86,0.82 3.57,1.4c0.71,0.58 1.06,1.39 1.06,2.44c0,0.81 -0.22,1.51 -0.66,2.11c-0.43,0.6 -1.04,1.07 -1.82,1.41c-0.78,0.32 -1.68,0.49 -2.72,0.49z" id="svg_4"/>
 </g>
</svg>